<?xml version="1.0" encoding="UTF-8" standalone="no"?>
<!-- Created with Inkscape (http://www.inkscape.org/) -->

<svg
   xmlns:dc="http://purl.org/dc/elements/1.1/"
   xmlns:cc="http://creativecommons.org/ns#"
   xmlns:rdf="http://www.w3.org/1999/02/22-rdf-syntax-ns#"
   xmlns:svg="http://www.w3.org/2000/svg"
   xmlns="http://www.w3.org/2000/svg"
   xmlns:sodipodi="http://sodipodi.sourceforge.net/DTD/sodipodi-0.dtd"
   xmlns:inkscape="http://www.inkscape.org/namespaces/inkscape"
   width="595.49603"
   height="190.13432"
   id="svg2"
   version="1.1"
   inkscape:version="0.48.3.1 r9886"
   sodipodi:docname="New document 1">
  <defs
     id="defs4" />
  <sodipodi:namedview
     id="base"
     pagecolor="#ffffff"
     bordercolor="#666666"
     borderopacity="1.0"
     inkscape:pageopacity="0.0"
     inkscape:pageshadow="2"
     inkscape:zoom="1"
     inkscape:cx="286.50264"
     inkscape:cy="102.91331"
     inkscape:document-units="px"
     inkscape:current-layer="g5724"
     showgrid="false"
     fit-margin-top="0"
     fit-margin-left="0"
     fit-margin-right="0"
     fit-margin-bottom="0"
     inkscape:window-width="1364"
     inkscape:window-height="747"
     inkscape:window-x="0"
     inkscape:window-y="19"
     inkscape:window-maximized="0" />
  <metadata
     id="metadata7">
    <rdf:RDF>
      <cc:Work
         rdf:about="">
        <dc:format>image/svg+xml</dc:format>
        <dc:type
           rdf:resource="http://purl.org/dc/dcmitype/StillImage" />
        <dc:title></dc:title>
      </cc:Work>
    </rdf:RDF>
  </metadata>
  <g
     inkscape:label="Layer 1"
     inkscape:groupmode="layer"
     id="layer1"
     transform="translate(-79.253971,-458.86458)">
    <g
       id="g5724">
      <path
         inkscape:connector-curvature="0"
         id="path3639"
         d="m 107.90991,526.97007 c -4.73594,0 -8.81646,2.79652 -10.685459,6.82796 -1.04716,-1.0929 -2.52013,-1.77419 -4.15327,-1.77419 -3.1771,0 -5.75268,2.57557 -5.75268,5.75269 0,0.91298 0.22631,1.77354 0.60487,2.5403 -4.83557,0.18787 -8.6694,4.13561 -8.6694,9.01883 0,5.00387 4.02841,9.03226 9.03226,9.03226 l 31.935479,0 c 5.00388,0 9.03226,-4.02839 9.03226,-9.03226 0,-5.00387 -4.02838,-9.03225 -9.03226,-9.03225 l -0.64513,0 c 0.0677,-0.5108 0.10752,-1.02985 0.10752,-1.55915 0,-6.5027 -5.27151,-11.77419 -11.77419,-11.77419 z"
         style="fill:#083047;fill-opacity:1;stroke:none" />
      <g
         id="g3641"
         transform="matrix(0,0.5,-0.5,0,57.702248,503.35816)"
         style="fill:#083047;fill-opacity:1">
        <rect
           transform="matrix(0,-1,1,0,0,0)"
           y="75.621666"
           x="147.61945"
           height="6"
           width="27.364235"
           id="rect3643"
           style="fill:#083047;fill-opacity:1;stroke:none" />
        <rect
           transform="matrix(0,-1,1,0,0,0)"
           style="fill:#083047;fill-opacity:1;stroke:none"
           id="rect3645"
           width="27.364235"
           height="6"
           x="183.19295"
           y="75.621666" />
      </g>
      <g
         id="g6092"
         transform="translate(-223.43618,-295.13542)">
        <g
           id="g6094"
           transform="translate(432.70797,777.9168)">
          <rect
             y="-6.3014984"
             x="-44.032944"
             height="150"
             width="120"
             id="rect6096"
             style="fill:#083047;fill-opacity:1;stroke:none" />
          <g
             style="fill:#ffffff"
             transform="matrix(1.0151964,0,0,1.0151964,-8321.6628,74.497488)"
             id="g6098">
            <path
               inkscape:connector-curvature="0"
               style="color:#000000;fill:#ffffff;fill-opacity:1;fill-rule:nonzero;stroke:none;stroke-width:0.83577561;marker:none;visibility:visible;display:inline;overflow:visible;enable-background:accumulate"
               d="m 8212.8244,-69.309136 c -3.1452,0 -9.375,11.266836 -9.375,16.460301 l 0,24.280023 2.2681,-2.764984 0,-9.029404 c 0,-2.151387 1.0402,-4.608415 2.2898,-6.826057 0.6249,-1.108821 1.3046,-2.113036 2.0305,-2.916195 0.7257,-0.803159 1.4275,-1.598507 2.7866,-1.598507 1.3591,0 2.0609,0.795348 2.7866,1.598507 0.7259,0.803159 1.4056,1.807374 2.0305,2.916195 1.2497,2.217642 2.2898,4.67467 2.2898,6.826057 l 0,9.029404 2.2681,2.764984 0,-24.280023 c 0,-5.193465 -6.2297,-16.460301 -9.375,-16.460301 z"
               id="path6100" />
            <path
               inkscape:connector-curvature="0"
               style="color:#000000;fill:#ffffff;fill-opacity:1;fill-rule:nonzero;stroke:none;stroke-width:0.83577561;marker:none;visibility:visible;display:inline;overflow:visible;enable-background:accumulate"
               d="m 8197.833,-54.900973 c -1.2754,0 -3.8019,6.037518 -3.8019,8.143745 l 0,28.643516 7.2365,-6.350825 0.065,-0.0432 0.3024,-0.367224 0,-21.882264 c 0,-2.106227 -2.5264,-8.143745 -3.8019,-8.143745 z m -3.8019,56.5309821 0,3.0890061 -0.021,0 -2.333,6.3508248 2.3546,0 0,2.85139 7.6037,0 0,-2.85139 2.3546,0 -2.333,-6.3508248 -0.021,0 0,-3.0890061 -7.6037,0 z"
               id="path6102" />
            <path
               inkscape:connector-curvature="0"
               style="color:#000000;fill:#ffffff;fill-opacity:1;fill-rule:nonzero;stroke:none;stroke-width:0.83577561;marker:none;visibility:visible;display:inline;overflow:visible;enable-background:accumulate"
               d="m 8227.8158,-54.900973 c -1.2754,0 -3.8019,6.037518 -3.8019,8.143745 l 0,21.882264 0.3025,0.367224 0.065,0.0432 7.2364,6.350825 0,-28.643516 c 0,-2.106227 -2.5263,-8.143745 -3.8018,-8.143745 z m -3.8019,56.5309821 0,3.0890061 -0.021,0 -2.333,6.3508248 2.3546,0 0,2.85139 7.6037,0 0,-2.85139 2.3546,0 -2.333,-6.3508248 -0.021,0 0,-3.0890061 -7.6037,0 z"
               id="path6104" />
            <path
               inkscape:connector-curvature="0"
               style="color:#000000;fill:#ffffff;fill-opacity:1;fill-rule:nonzero;stroke:none;stroke-width:3.74297166;marker:none;visibility:visible;display:inline;overflow:visible;enable-background:accumulate"
               d="m 8212.6516,-49.262996 c -1.9321,0.399015 -5.4435,6.836018 -5.4435,9.850259 l 0,34.3895011 -16.5468,0 0,5.09794096 16.8924,0 -1.3177,1.33928904 0,3.8666587 13.1769,0 0,-3.8666587 -1.3177,-1.33928904 16.8923,0 0,-5.09794096 -16.5467,0 0,-34.3895011 c 0,-3.111472 -3.732,-9.850259 -5.6164,-9.850259 -0.059,0 -0.1104,-0.01286 -0.1728,0 z m -6.9341,22.184684 -3.2186,3.909862 -11.8376,10.368693 0,5.4435641 15.0994,0 c -0.028,-0.112991 -0.043,-0.229258 -0.043,-0.345623 l 0,-19.3764961 z m 14.2138,0 0,19.3764961 c 0,0.116365 -0.017,0.232632 -0.043,0.345623 l 15.0994,0 0,-5.4435641 -11.8376,-10.368693 -3.2186,-3.909862 z"
               id="path6106" />
          </g>
          <text
             sodipodi:linespacing="125%"
             id="text6108"
             y="128.55641"
             x="-35.691257"
             style="font-size:24px;font-style:normal;font-variant:normal;font-weight:normal;font-stretch:normal;line-height:125%;letter-spacing:0px;word-spacing:0px;fill:#ffffff;fill-opacity:1;stroke:none;font-family:FreeSans;-inkscape-font-specification:FreeSans"
             xml:space="preserve"><tspan
               y="128.55641"
               x="-35.691257"
               id="tspan6110"
               sodipodi:role="line">VARNISH</tspan></text>
        </g>
        <g
           id="g6112">
          <rect
             style="fill:#083047;fill-opacity:1;stroke:#ffffff;stroke-width:3"
             id="rect6114"
             width="60.732109"
             height="52.874969"
             x="479.86938"
             y="755.49353"
             ry="0"
             rx="0" />
          <g
             style="fill:#ffffff"
             id="g6116"
             transform="matrix(0.2222347,0,0,0.2222347,421.60913,606.97351)">
            <path
               sodipodi:nodetypes="ssssssssss"
               inkscape:connector-curvature="0"
               id="path6118"
               d="m 398.796,702.32681 c -20.62041,0 -37.39829,16.77788 -37.39829,37.39829 0,20.62041 16.77788,37.39829 37.39829,37.39829 20.62041,0 37.39829,-16.77788 37.39829,-37.39829 0,-20.62041 -16.77788,-37.39829 -37.39829,-37.39829 z m 0,8.26103 c 16.12152,0 29.13727,13.01574 29.13727,29.13726 0,16.12152 -13.01575,29.13726 -29.13727,29.13726 -16.12151,0 -29.13726,-13.01574 -29.13726,-29.13726 0,-16.12152 13.01575,-29.13726 29.13726,-29.13726 z"
               style="font-size:medium;font-style:normal;font-variant:normal;font-weight:normal;font-stretch:normal;text-indent:0;text-align:start;text-decoration:none;line-height:normal;letter-spacing:normal;word-spacing:normal;text-transform:none;direction:ltr;block-progression:tb;writing-mode:lr-tb;text-anchor:start;baseline-shift:baseline;color:#000000;fill:#ffffff;fill-opacity:1;stroke:none;stroke-width:4;marker:none;visibility:visible;display:inline;overflow:visible;enable-background:accumulate;font-family:Sans;-inkscape-font-specification:Sans" />
            <g
               id="g6120"
               transform="matrix(1.3980669,0,0,1.3980669,465.33525,-627.38152)"
               style="fill:#ffffff;fill-opacity:1">
              <g
                 id="g6122"
                 style="fill:#ffffff;fill-opacity:1">
                <rect
                   ry="1.2626907"
                   transform="translate(0,949.60497)"
                   y="-9.3710194"
                   x="-52.654202"
                   height="8.3337584"
                   width="9.8489876"
                   id="rect6124"
                   style="fill:#ffffff;fill-opacity:1;stroke:none" />
                <rect
                   transform="translate(0,949.60497)"
                   ry="0"
                   y="-1.2266642"
                   x="-49.623745"
                   height="2.9041886"
                   width="3.7880707"
                   id="rect6126"
                   style="fill:#ffffff;fill-opacity:1;stroke:none" />
              </g>
            </g>
            <g
               inkscape:transform-center-x="290.67937"
               transform="matrix(0.7000132,-0.7000132,0.7000132,0.7000132,-258.09334,14.05039)"
               inkscape:transform-center-y="-290.67955"
               id="g6128"
               style="fill:#ffffff;fill-opacity:1">
              <g
                 id="g6130"
                 style="fill:#ffffff;fill-opacity:1">
                <rect
                   style="fill:#ffffff;fill-opacity:1;stroke:none"
                   id="rect6132"
                   width="9.8489876"
                   height="8.3337584"
                   x="-52.654202"
                   y="-9.3710194"
                   transform="translate(0,949.60497)"
                   ry="1.2626907" />
                <rect
                   style="fill:#ffffff;fill-opacity:1;stroke:none"
                   id="rect6134"
                   width="3.7880707"
                   height="2.9041886"
                   x="-49.623745"
                   y="-1.2266642"
                   ry="0"
                   transform="translate(0,949.60497)" />
              </g>
            </g>
            <path
               inkscape:connector-curvature="0"
               id="path6136"
               d="m 398.78352,735.61826 c -2.25709,0 -4.11953,1.859 -4.11953,4.1161 0,2.2571 1.86244,4.1161 4.11953,4.1161 2.2571,0 4.11611,-1.859 4.11611,-4.1161 0,-2.2571 -1.85901,-4.1161 -4.11611,-4.1161 z m 0,2.79785 c 0.74596,0 1.31826,0.5723 1.31826,1.31825 0,0.74596 -0.5723,1.32169 -1.31826,1.32169 -0.74595,0 -1.32168,-0.57573 -1.32168,-1.32169 0,-0.74595 0.57573,-1.31825 1.32168,-1.31825 z"
               style="font-size:medium;font-style:normal;font-variant:normal;font-weight:normal;font-stretch:normal;text-indent:0;text-align:start;text-decoration:none;line-height:normal;letter-spacing:normal;word-spacing:normal;text-transform:none;direction:ltr;block-progression:tb;writing-mode:lr-tb;text-anchor:start;baseline-shift:baseline;color:#000000;fill:#ffffff;fill-opacity:1;stroke:none;stroke-width:25.45312691;marker:none;visibility:visible;display:inline;overflow:visible;enable-background:accumulate;font-family:Sans;-inkscape-font-specification:Sans" />
            <path
               sodipodi:nodetypes="ccccccccccccccccc"
               inkscape:connector-curvature="0"
               id="path6138"
               d="m 398.79731,716.27194 -0.46875,0.9375 -0.53125,1 -0.0625,0.125 0,0.125 -0.53125,19.34375 0,0.5625 0.5625,0 2.03125,0 0.5625,0 -0.0312,-0.5625 -0.46875,-19.34375 -0.0312,-0.125 -0.0312,-0.125 -0.5,-0.96875 -0.5,-0.96875 z"
               style="font-size:medium;font-style:normal;font-variant:normal;font-weight:normal;font-stretch:normal;text-indent:0;text-align:start;text-decoration:none;line-height:normal;letter-spacing:normal;word-spacing:normal;text-transform:none;direction:ltr;block-progression:tb;writing-mode:lr-tb;text-anchor:start;baseline-shift:baseline;color:#000000;fill:#ffffff;fill-opacity:1;fill-rule:nonzero;stroke:none;stroke-width:1.07928753px;marker:none;visibility:visible;display:inline;overflow:visible;enable-background:accumulate;font-family:Sans;-inkscape-font-specification:Sans" />
            <path
               inkscape:connector-curvature="0"
               id="path6140"
               d="m 398.48808,712.63505 0,3.03603 0.61846,0 0,-3.03603 -0.61846,0 z"
               style="font-size:medium;font-style:normal;font-variant:normal;font-weight:normal;font-stretch:normal;text-indent:0;text-align:start;text-decoration:none;line-height:normal;letter-spacing:normal;word-spacing:normal;text-transform:none;direction:ltr;block-progression:tb;writing-mode:lr-tb;text-anchor:start;baseline-shift:baseline;color:#000000;fill:#ffffff;fill-opacity:1;stroke:none;stroke-width:0.69903338;marker:none;visibility:visible;display:inline;overflow:visible;enable-background:accumulate;font-family:Sans;-inkscape-font-specification:Sans" />
            <path
               inkscape:connector-curvature="0"
               id="path6142"
               d="m 422.80442,739.36896 0,0.61846 3.03603,0 0,-0.61846 -3.03603,0 z"
               style="font-size:medium;font-style:normal;font-variant:normal;font-weight:normal;font-stretch:normal;text-indent:0;text-align:start;text-decoration:none;line-height:normal;letter-spacing:normal;word-spacing:normal;text-transform:none;direction:ltr;block-progression:tb;writing-mode:lr-tb;text-anchor:start;baseline-shift:baseline;color:#000000;fill:#ffffff;fill-opacity:1;stroke:none;stroke-width:0.69903338;marker:none;visibility:visible;display:inline;overflow:visible;enable-background:accumulate;font-family:Sans;-inkscape-font-specification:Sans" />
            <path
               inkscape:connector-curvature="0"
               id="path6144"
               d="m 398.48808,763.6853 0,3.03603 0.61846,0 0,-3.03603 -0.61846,0 z"
               style="font-size:medium;font-style:normal;font-variant:normal;font-weight:normal;font-stretch:normal;text-indent:0;text-align:start;text-decoration:none;line-height:normal;letter-spacing:normal;word-spacing:normal;text-transform:none;direction:ltr;block-progression:tb;writing-mode:lr-tb;text-anchor:start;baseline-shift:baseline;color:#000000;fill:#ffffff;fill-opacity:1;stroke:none;stroke-width:0.69903338;marker:none;visibility:visible;display:inline;overflow:visible;enable-background:accumulate;font-family:Sans;-inkscape-font-specification:Sans" />
            <path
               inkscape:connector-curvature="0"
               id="path6146"
               d="m 371.75417,739.36896 0,0.61846 3.03603,0 0,-0.61846 -3.03603,0 z"
               style="font-size:medium;font-style:normal;font-variant:normal;font-weight:normal;font-stretch:normal;text-indent:0;text-align:start;text-decoration:none;line-height:normal;letter-spacing:normal;word-spacing:normal;text-transform:none;direction:ltr;block-progression:tb;writing-mode:lr-tb;text-anchor:start;baseline-shift:baseline;color:#000000;fill:#ffffff;fill-opacity:1;stroke:none;stroke-width:0.69903338;marker:none;visibility:visible;display:inline;overflow:visible;enable-background:accumulate;font-family:Sans;-inkscape-font-specification:Sans" />
            <path
               inkscape:connector-curvature="0"
               id="path6148"
               d="m 412.03777,716.12086 -1.51802,2.61436 0.56223,0.30922 1.4899,-2.61436 -0.53411,-0.30922 z"
               style="font-size:medium;font-style:normal;font-variant:normal;font-weight:normal;font-stretch:normal;text-indent:0;text-align:start;text-decoration:none;line-height:normal;letter-spacing:normal;word-spacing:normal;text-transform:none;direction:ltr;block-progression:tb;writing-mode:lr-tb;text-anchor:start;baseline-shift:baseline;color:#000000;fill:#ffffff;fill-opacity:1;stroke:none;stroke-width:0.69903338;marker:none;visibility:visible;display:inline;overflow:visible;enable-background:accumulate;font-family:Sans;-inkscape-font-specification:Sans" />
            <path
               inkscape:connector-curvature="0"
               id="path6150"
               d="m 422.04542,725.90362 -2.61436,1.51801 0.30922,0.53412 2.61436,-1.51802 -0.30922,-0.53411 z"
               style="font-size:medium;font-style:normal;font-variant:normal;font-weight:normal;font-stretch:normal;text-indent:0;text-align:start;text-decoration:none;line-height:normal;letter-spacing:normal;word-spacing:normal;text-transform:none;direction:ltr;block-progression:tb;writing-mode:lr-tb;text-anchor:start;baseline-shift:baseline;color:#000000;fill:#ffffff;fill-opacity:1;stroke:none;stroke-width:0.69903338;marker:none;visibility:visible;display:inline;overflow:visible;enable-background:accumulate;font-family:Sans;-inkscape-font-specification:Sans" />
            <path
               inkscape:connector-curvature="0"
               id="path6152"
               d="m 419.74028,751.42874 -0.30922,0.53412 2.61436,1.51801 0.30922,-0.53411 -2.61436,-1.51802 z"
               style="font-size:medium;font-style:normal;font-variant:normal;font-weight:normal;font-stretch:normal;text-indent:0;text-align:start;text-decoration:none;line-height:normal;letter-spacing:normal;word-spacing:normal;text-transform:none;direction:ltr;block-progression:tb;writing-mode:lr-tb;text-anchor:start;baseline-shift:baseline;color:#000000;fill:#ffffff;fill-opacity:1;stroke:none;stroke-width:0.69903338;marker:none;visibility:visible;display:inline;overflow:visible;enable-background:accumulate;font-family:Sans;-inkscape-font-specification:Sans" />
            <path
               inkscape:connector-curvature="0"
               id="path6154"
               d="m 411.08198,760.31194 -0.56223,0.33734 1.51802,2.61435 0.53411,-0.30922 -1.4899,-2.64247 z"
               style="font-size:medium;font-style:normal;font-variant:normal;font-weight:normal;font-stretch:normal;text-indent:0;text-align:start;text-decoration:none;line-height:normal;letter-spacing:normal;word-spacing:normal;text-transform:none;direction:ltr;block-progression:tb;writing-mode:lr-tb;text-anchor:start;baseline-shift:baseline;color:#000000;fill:#ffffff;fill-opacity:1;stroke:none;stroke-width:0.69903338;marker:none;visibility:visible;display:inline;overflow:visible;enable-background:accumulate;font-family:Sans;-inkscape-font-specification:Sans" />
            <path
               inkscape:connector-curvature="0"
               id="path6156"
               d="m 386.51264,760.31194 -1.51801,2.64247 0.56222,0.30922 1.48991,-2.61435 -0.53412,-0.33734 z"
               style="font-size:medium;font-style:normal;font-variant:normal;font-weight:normal;font-stretch:normal;text-indent:0;text-align:start;text-decoration:none;line-height:normal;letter-spacing:normal;word-spacing:normal;text-transform:none;direction:ltr;block-progression:tb;writing-mode:lr-tb;text-anchor:start;baseline-shift:baseline;color:#000000;fill:#ffffff;fill-opacity:1;stroke:none;stroke-width:0.69903338;marker:none;visibility:visible;display:inline;overflow:visible;enable-background:accumulate;font-family:Sans;-inkscape-font-specification:Sans" />
            <path
               inkscape:connector-curvature="0"
               id="path6158"
               d="m 377.85434,751.42874 -2.64247,1.51802 0.30922,0.53411 2.64247,-1.51801 -0.30922,-0.53412 z"
               style="font-size:medium;font-style:normal;font-variant:normal;font-weight:normal;font-stretch:normal;text-indent:0;text-align:start;text-decoration:none;line-height:normal;letter-spacing:normal;word-spacing:normal;text-transform:none;direction:ltr;block-progression:tb;writing-mode:lr-tb;text-anchor:start;baseline-shift:baseline;color:#000000;fill:#ffffff;fill-opacity:1;stroke:none;stroke-width:0.69903338;marker:none;visibility:visible;display:inline;overflow:visible;enable-background:accumulate;font-family:Sans;-inkscape-font-specification:Sans" />
            <path
               inkscape:connector-curvature="0"
               id="path6160"
               d="m 375.52109,725.90362 -0.30922,0.53411 2.64247,1.51802 0.30922,-0.53412 -2.64247,-1.51801 z"
               style="font-size:medium;font-style:normal;font-variant:normal;font-weight:normal;font-stretch:normal;text-indent:0;text-align:start;text-decoration:none;line-height:normal;letter-spacing:normal;word-spacing:normal;text-transform:none;direction:ltr;block-progression:tb;writing-mode:lr-tb;text-anchor:start;baseline-shift:baseline;color:#000000;fill:#ffffff;fill-opacity:1;stroke:none;stroke-width:0.69903338;marker:none;visibility:visible;display:inline;overflow:visible;enable-background:accumulate;font-family:Sans;-inkscape-font-specification:Sans" />
            <path
               inkscape:connector-curvature="0"
               id="path6162"
               d="m 385.55685,716.12086 -0.56222,0.30922 1.51801,2.61436 0.53412,-0.30922 -1.48991,-2.61436 z"
               style="font-size:medium;font-style:normal;font-variant:normal;font-weight:normal;font-stretch:normal;text-indent:0;text-align:start;text-decoration:none;line-height:normal;letter-spacing:normal;word-spacing:normal;text-transform:none;direction:ltr;block-progression:tb;writing-mode:lr-tb;text-anchor:start;baseline-shift:baseline;color:#000000;fill:#ffffff;fill-opacity:1;stroke:none;stroke-width:0.69903338;marker:none;visibility:visible;display:inline;overflow:visible;enable-background:accumulate;font-family:Sans;-inkscape-font-specification:Sans" />
          </g>
          <text
             xml:space="preserve"
             style="font-size:13px;font-style:normal;font-variant:normal;font-weight:normal;font-stretch:normal;text-align:center;line-height:125%;letter-spacing:0px;word-spacing:0px;text-anchor:middle;fill:#ffffff;fill-opacity:1;stroke:none;font-family:FreeSans;-inkscape-font-specification:FreeSans"
             x="510.07874"
             y="801.66919"
             id="text6164"
             sodipodi:linespacing="125%"><tspan
               sodipodi:role="line"
               x="510.07874"
               y="801.66919"
               id="tspan6166"
               style="font-size:10px;font-style:normal;font-variant:normal;font-weight:bold;font-stretch:normal;fill:#ffffff;font-family:FreeSans;-inkscape-font-specification:FreeSans Bold">DIRECTOR</tspan></text>
        </g>
      </g>
      <g
         transform="translate(182.98447,16.249039)"
         id="g4503">
        <rect
           transform="matrix(0,1,-1,0,0,0)"
           y="-278.72122"
           x="477.91995"
           height="118"
           width="97"
           id="rect4505"
           style="fill:#083047;fill-opacity:1;stroke:none" />
        <path
           inkscape:connector-curvature="0"
           style="fill:#ffffff;fill-opacity:1;stroke:none"
           d="m 197.21099,489.41994 11.37292,2.84836 -2.72538,10.9836 -11.37298,-2.84836 z m 28.93443,0.041 19.91803,5.32787 -4.8156,17.97131 -19.89751,-5.34836 z m -32.19266,11.74181 46.86479,12.56147 -0.57377,2.15164 -46.86479,-12.56148 z m 23.54512,8.87294 6.47541,14.34427 -12.95082,0 z"
           id="path4507"
           sodipodi:nodetypes="ccccccccccccccccccc" />
        <text
           xml:space="preserve"
           style="font-size:22px;font-style:normal;font-variant:normal;font-weight:normal;font-stretch:normal;text-align:center;line-height:125%;letter-spacing:0px;word-spacing:0px;text-anchor:middle;fill:#ffffff;fill-opacity:1;stroke:none;font-family:FreeSans;-inkscape-font-specification:FreeSans"
           x="220.02888"
           y="559.62769"
           id="text4509"
           sodipodi:linespacing="125%"><tspan
             id="tspan4511"
             sodipodi:role="line"
             x="220.02888"
             y="559.62769">AWS ELB</tspan></text>
      </g>
      <g
         id="g3625"
         transform="matrix(-0.20698156,0,0,-0.20698156,821.93665,976.42355)">
        <rect
           y="2079.6765"
           x="2404.4753"
           height="31.8857"
           width="1.5183667"
           id="rect3627"
           style="fill:none;stroke:#083047;stroke-width:10;stroke-linecap:butt;stroke-linejoin:round;stroke-miterlimit:4;stroke-opacity:1;stroke-dasharray:none;stroke-dashoffset:0" />
        <rect
           style="fill:none;stroke:#083047;stroke-width:10;stroke-linecap:butt;stroke-linejoin:round;stroke-miterlimit:4;stroke-opacity:1;stroke-dasharray:none;stroke-dashoffset:0"
           id="rect3629"
           width="1.5183667"
           height="31.8857"
           x="2429.959"
           y="2079.6765" />
        <rect
           y="2079.6765"
           x="2455.4424"
           height="31.8857"
           width="1.5183667"
           id="rect3631"
           style="fill:none;stroke:#083047;stroke-width:10;stroke-linecap:butt;stroke-linejoin:round;stroke-miterlimit:4;stroke-opacity:1;stroke-dasharray:none;stroke-dashoffset:0" />
        <rect
           style="fill:none;stroke:#083047;stroke-width:10;stroke-linecap:butt;stroke-linejoin:round;stroke-miterlimit:4;stroke-opacity:1;stroke-dasharray:none;stroke-dashoffset:0"
           id="rect3633"
           width="1.5183667"
           height="31.8857"
           x="2480.926"
           y="2079.6765" />
        <path
           inkscape:transform-center-x="9.0168002"
           transform="translate(2245.5624,-2553.7459)"
           d="m 134.94783,4680.6003 -54.100799,-31.2351 54.100799,-31.2351 z"
           inkscape:randomized="0"
           inkscape:rounded="0"
           inkscape:flatsided="true"
           sodipodi:arg2="2.0943951"
           sodipodi:arg1="1.0471976"
           sodipodi:r2="18.0336"
           sodipodi:r1="36.0672"
           sodipodi:cy="4649.3652"
           sodipodi:cx="116.91423"
           sodipodi:sides="3"
           id="path3635"
           style="fill:none;stroke:#083047;stroke-width:10;stroke-linecap:butt;stroke-linejoin:round;stroke-miterlimit:4;stroke-opacity:1;stroke-dasharray:none;stroke-dashoffset:0"
           sodipodi:type="star" />
        <path
           sodipodi:type="star"
           style="fill:none;stroke:#083047;stroke-width:10;stroke-linecap:butt;stroke-linejoin:round;stroke-miterlimit:4;stroke-opacity:1;stroke-dasharray:none;stroke-dashoffset:0"
           id="path3637"
           sodipodi:sides="3"
           sodipodi:cx="116.91423"
           sodipodi:cy="4649.3652"
           sodipodi:r1="36.0672"
           sodipodi:r2="18.0336"
           sodipodi:arg1="1.0471976"
           sodipodi:arg2="2.0943951"
           inkscape:flatsided="true"
           inkscape:rounded="0"
           inkscape:randomized="0"
           d="m 134.94783,4680.6003 -54.100799,-31.2351 54.100799,-31.2351 z"
           transform="matrix(-1,0,0,1,2641.3574,-2553.7459)"
           inkscape:transform-center-x="-9.0168378" />
      </g>
      <g
         transform="matrix(-0.20698156,0,0,-0.20698156,994.97702,976.42355)"
         id="g5525">
        <rect
           style="fill:none;stroke:#083047;stroke-width:10;stroke-linecap:butt;stroke-linejoin:round;stroke-miterlimit:4;stroke-opacity:1;stroke-dasharray:none;stroke-dashoffset:0"
           id="rect5527"
           width="1.5183667"
           height="31.8857"
           x="2404.4753"
           y="2079.6765" />
        <rect
           y="2079.6765"
           x="2429.959"
           height="31.8857"
           width="1.5183667"
           id="rect5529"
           style="fill:none;stroke:#083047;stroke-width:10;stroke-linecap:butt;stroke-linejoin:round;stroke-miterlimit:4;stroke-opacity:1;stroke-dasharray:none;stroke-dashoffset:0" />
        <rect
           style="fill:none;stroke:#083047;stroke-width:10;stroke-linecap:butt;stroke-linejoin:round;stroke-miterlimit:4;stroke-opacity:1;stroke-dasharray:none;stroke-dashoffset:0"
           id="rect5531"
           width="1.5183667"
           height="31.8857"
           x="2455.4424"
           y="2079.6765" />
        <rect
           y="2079.6765"
           x="2480.926"
           height="31.8857"
           width="1.5183667"
           id="rect5533"
           style="fill:none;stroke:#083047;stroke-width:10;stroke-linecap:butt;stroke-linejoin:round;stroke-miterlimit:4;stroke-opacity:1;stroke-dasharray:none;stroke-dashoffset:0" />
        <path
           sodipodi:type="star"
           style="fill:none;stroke:#083047;stroke-width:10;stroke-linecap:butt;stroke-linejoin:round;stroke-miterlimit:4;stroke-opacity:1;stroke-dasharray:none;stroke-dashoffset:0"
           id="path5535"
           sodipodi:sides="3"
           sodipodi:cx="116.91423"
           sodipodi:cy="4649.3652"
           sodipodi:r1="36.0672"
           sodipodi:r2="18.0336"
           sodipodi:arg1="1.0471976"
           sodipodi:arg2="2.0943951"
           inkscape:flatsided="true"
           inkscape:rounded="0"
           inkscape:randomized="0"
           d="m 134.94783,4680.6003 -54.100799,-31.2351 54.100799,-31.2351 z"
           transform="translate(2245.5624,-2553.7459)"
           inkscape:transform-center-x="9.0168002" />
        <path
           inkscape:transform-center-x="-9.0168378"
           transform="matrix(-1,0,0,1,2641.3574,-2553.7459)"
           d="m 134.94783,4680.6003 -54.100799,-31.2351 54.100799,-31.2351 z"
           inkscape:randomized="0"
           inkscape:rounded="0"
           inkscape:flatsided="true"
           sodipodi:arg2="2.0943951"
           sodipodi:arg1="1.0471976"
           sodipodi:r2="18.0336"
           sodipodi:r1="36.0672"
           sodipodi:cy="4649.3652"
           sodipodi:cx="116.91423"
           sodipodi:sides="3"
           id="path5537"
           style="fill:none;stroke:#083047;stroke-width:10;stroke-linecap:butt;stroke-linejoin:round;stroke-miterlimit:4;stroke-opacity:1;stroke-dasharray:none;stroke-dashoffset:0"
           sodipodi:type="star" />
      </g>
      <g
         id="g5545">
        <g
           id="g4651"
           transform="translate(-201,118.24907)">
          <rect
             style="fill:#083047;fill-opacity:1;stroke:#ffffff;stroke-width:4"
             id="rect4649"
             width="120"
             height="120"
             x="753.74609"
             y="347.05316" />
          <rect
             y="364.41992"
             x="736.74609"
             height="120"
             width="120"
             id="rect3821"
             style="fill:#083047;fill-opacity:1;stroke:#ffffff;stroke-width:4" />
          <g
             transform="translate(11,-73)"
             id="g4637">
            <rect
               y="454.78668"
               x="708.74609"
               height="120"
               width="120"
               id="rect3605"
               style="fill:#083047;fill-opacity:1;stroke:#ffffff;stroke-width:4" />
            <text
               sodipodi:linespacing="125%"
               id="text3607"
               y="540.98407"
               x="769.04913"
               style="font-size:17px;font-style:normal;font-variant:normal;font-weight:normal;font-stretch:normal;text-align:center;line-height:125%;letter-spacing:0px;word-spacing:0px;text-anchor:middle;fill:#ffffff;fill-opacity:1;stroke:none;font-family:FreeSans;-inkscape-font-specification:FreeSans"
               xml:space="preserve"><tspan
                 y="540.98407"
                 x="769.04913"
                 id="tspan3609"
                 sodipodi:role="line">APPLICATION</tspan><tspan
                 id="tspan3611"
                 y="562.23407"
                 x="769.04913"
                 sodipodi:role="line">SERVER</tspan></text>
            <g
               transform="matrix(0.84967222,0,0,0.84967222,-1372.5417,-1475.8864)"
               id="g3613">
              <path
                 style="fill:#ffffff;fill-opacity:1;stroke:#083047;stroke-width:1px;stroke-linecap:butt;stroke-linejoin:miter;stroke-opacity:1"
                 d="m 2507.1435,2319.862 0,-15 12.9904,-7.5 -12.9904,-7.5 -12.9904,7.5 0,15 z"
                 id="path3615"
                 inkscape:connector-curvature="0" />
              <path
                 style="fill:#ffffff;fill-opacity:1;stroke:#083047"
                 d="m 2507.1435,2289.862 12.9904,-7.5 12.9904,7.5 -12.9904,7.5 z"
                 id="path3617"
                 inkscape:connector-curvature="0" />
              <path
                 style="fill:#ffffff;fill-opacity:1;stroke:#083047"
                 d="m 2494.1532,2312.362 0,15 25.9807,15 25.9808,-15 0,-15 -25.9808,15 z"
                 id="path3619"
                 inkscape:connector-curvature="0" />
              <path
                 style="fill:#ffffff;fill-opacity:1;stroke:#083047;stroke-width:1px;stroke-linecap:butt;stroke-linejoin:miter;stroke-opacity:1"
                 d="m 2507.1435,2319.862 0,-15 25.9808,-15 12.9904,7.5 0,15 -25.9808,15 z"
                 id="path3621"
                 inkscape:connector-curvature="0" />
              <path
                 style="fill:none;stroke:#083047;stroke-width:1px;stroke-linecap:butt;stroke-linejoin:miter;stroke-opacity:1"
                 d="m 2520.1339,2297.362 12.9904,7.5 0,15"
                 id="path3623"
                 inkscape:connector-curvature="0" />
            </g>
          </g>
        </g>
        <text
           xml:space="preserve"
           style="font-size:14px;font-style:normal;font-variant:normal;font-weight:bold;font-stretch:normal;text-align:center;line-height:125%;letter-spacing:0px;word-spacing:0px;text-anchor:middle;fill:#083047;fill-opacity:1;stroke:none;font-family:League Gothic;-inkscape-font-specification:Liberation Sans Bold"
           x="595.85205"
           y="631.36218"
           id="text5539"
           sodipodi:linespacing="125%"><tspan
             sodipodi:role="line"
             id="tspan5541"
             x="595.85205"
             y="631.36218"
             style="font-size:14px;font-style:normal;font-variant:normal;font-weight:bold;font-stretch:normal;font-family:Liberation Sans;-inkscape-font-specification:Liberation Sans Bold">AUTOSCALE</tspan><tspan
             sodipodi:role="line"
             x="595.85205"
             y="648.86218"
             id="tspan5543"
             style="font-size:14px;font-style:normal;font-variant:normal;font-weight:bold;font-stretch:normal;font-family:Liberation Sans;-inkscape-font-specification:Liberation Sans Bold">GROUP</tspan></text>
      </g>
    </g>
  </g>
</svg>
